# xmcd
#
# Track frame offsets: 
#        150
#        15198
#        29935
#        45836
#        60948
#        75161
#        93512
#        112982
#        129844
#        147291
#        162297
#
# Disc length: 2372 seconds
#
# Revision: 0
# Processed by: cddbd v1.5.2PL0 Copyright (c) Steve Scherf et al.
# Submitted via: ExactAudioCopy v0.99pb5
#
DISCID=7509420b
DTITLE=KIRA ISABELLA - CAFFEINE and BIG DREAMS
DYEAR=2014
DGENRE=COUNTRY
TTITLE0=SHAKE IT IF YA GOT IT
TTITLE1=GONE ENOUGH
TTITLE2=QUARTERBACK
TTITLE3=COKE CAN
TTITLE4=HEY LOVE
TTITLE5=RING AROUND IT
TTITLE6=MAKE A SINNER OUT OF ME
TTITLE7=A NIGHT LIKE THIS
TTITLE8=COUNTRY'S WRITTEN ALL OVER ME
TTITLE9=LATE BLOOMER
TTITLE10=HEAVEN
EXTD=
EXTT0=
EXTT1=
EXTT2=
EXTT3=
EXTT4=
EXTT5=
EXTT6=
EXTT7=
EXTT8=
EXTT9=
EXTT10=
PLAYORDER=
